<?xml version="1.0" encoding="UTF-8" standalone="no"?>
<!DOCTYPE svg PUBLIC "-//W3C//DTD SVG 1.1//EN" "http://www.w3.org/Graphics/SVG/1.1/DTD/svg11.dtd">
<svg version="1.1" xmlns="http://www.w3.org/2000/svg" xmlns:xlink="http://www.w3.org/1999/xlink" preserveAspectRatio="xMidYMid meet" viewBox="0 0 640 640" width="101" height="101"><defs><path d="M386.53 266.14C386.53 233.82 386.53 215.87 386.53 212.28C386.53 207.03 382.28 202.77 377.03 202.77C364.36 202.77 262.97 202.77 250.3 202.77C245.05 202.77 240.79 207.03 240.79 212.28C240.79 215.87 240.79 233.82 240.79 266.14C162.85 266.14 119.55 266.14 110.89 266.14C105.64 266.14 101.39 270.39 101.39 275.64C101.39 301.62 101.39 509.47 101.39 535.45C101.39 540.69 105.64 544.95 110.89 544.95C152.08 544.95 481.58 544.95 522.77 544.95C528.02 544.95 532.28 540.69 532.28 535.45C532.28 509.47 532.28 301.62 532.28 275.64C532.28 270.39 528.02 266.14 522.77 266.14C504.61 266.14 459.19 266.14 386.53 266.14ZM259.8 221.78L367.52 221.78L367.52 266.14L259.8 266.14L259.8 221.78ZM513.27 285.15L513.27 386.53C424.8 386.53 375.64 386.53 365.81 386.53C360.56 386.53 356.31 390.79 356.31 396.04C356.31 418.65 337.98 436.97 315.37 436.97C292.77 436.97 274.44 418.65 274.44 396.04C274.44 390.79 270.18 386.53 264.93 386.53C255.3 386.53 207.12 386.53 120.4 386.53L120.4 285.15L513.27 285.15ZM120.4 525.94L120.4 405.54C201.87 405.54 247.14 405.54 256.19 405.54C261.45 438.23 292.21 460.47 324.89 455.21C350.43 451.1 370.45 431.08 374.56 405.54C383.81 405.54 430.04 405.54 513.27 405.54L513.27 525.94L120.4 525.94Z" id="e7PgfsJpYR"></path><path d="M329.5 50.69C322.51 50.69 316.83 56.37 316.83 63.37C316.83 70.37 322.51 76.04 329.5 76.04C336.5 76.04 342.18 70.37 342.18 63.37C342.18 56.37 336.5 50.69 329.5 50.69Z" id="b7XaRNIM7"></path><path d="M563.96 164.75C556.96 164.75 551.29 170.43 551.29 177.43C551.29 184.42 556.96 190.1 563.96 190.1C570.96 190.1 576.63 184.42 576.63 177.43C576.63 170.43 570.96 164.75 563.96 164.75Z" id="d1vvq6tnwG"></path><path d="M57.03 209.11C50.03 209.11 44.36 214.78 44.36 221.78C44.36 228.78 50.03 234.46 57.03 234.46C64.03 234.46 69.7 228.78 69.7 221.78C69.7 214.78 64.03 209.11 57.03 209.11Z" id="a2MjPms5vM"></path><path d="M262.21 158.42C267.46 157.75 271.18 152.96 270.51 147.71C269.85 142.46 265.05 138.74 259.8 139.41C259.8 139.41 259.8 139.41 259.8 139.41C224.27 143.19 192.4 117.46 188.61 81.93C188.11 77.28 188.12 72.58 188.64 67.93C189.22 62.68 185.43 57.96 180.18 57.38C174.93 56.8 170.21 60.59 169.63 65.84C164.56 111.82 197.72 153.22 243.71 158.29C246.76 158.63 249.83 158.8 252.9 158.8C256 158.84 259.11 158.71 262.21 158.42Z" id="dLWvgTZCJ"></path><path d="M506.43 121.66C510.07 116.58 513.11 111.09 515.49 105.31C517.51 100.47 515.23 94.89 510.38 92.86C505.54 90.83 499.96 93.12 497.93 97.96C497.93 97.96 497.93 97.96 497.93 97.96C490.71 115.54 475.84 128.85 457.57 134.08C439.4 139.34 419.82 135.95 404.47 124.9C400.2 121.83 394.25 122.81 391.19 127.08C388.13 131.35 389.11 137.29 393.38 140.36C393.38 140.36 393.38 140.36 393.38 140.36C429.81 166.4 480.39 158.03 506.43 121.66Z" id="dNFNyl0y"></path></defs><g><g><g><use xlink:href="#e7PgfsJpYR" opacity="1" fill="#ffffff" fill-opacity="1"></use><g><use xlink:href="#e7PgfsJpYR" opacity="1" fill-opacity="0" stroke="#000000" stroke-width="1" stroke-opacity="0"></use></g></g><g><use xlink:href="#b7XaRNIM7" opacity="1" fill="#ffffff" fill-opacity="1"></use><g><use xlink:href="#b7XaRNIM7" opacity="1" fill-opacity="0" stroke="#000000" stroke-width="1" stroke-opacity="0"></use></g></g><g><use xlink:href="#d1vvq6tnwG" opacity="1" fill="#ffffff" fill-opacity="1"></use><g><use xlink:href="#d1vvq6tnwG" opacity="1" fill-opacity="0" stroke="#000000" stroke-width="1" stroke-opacity="0"></use></g></g><g><use xlink:href="#a2MjPms5vM" opacity="1" fill="#ffffff" fill-opacity="1"></use><g><use xlink:href="#a2MjPms5vM" opacity="1" fill-opacity="0" stroke="#000000" stroke-width="1" stroke-opacity="0"></use></g></g><g><use xlink:href="#dLWvgTZCJ" opacity="1" fill="#ffffff" fill-opacity="1"></use><g><use xlink:href="#dLWvgTZCJ" opacity="1" fill-opacity="0" stroke="#000000" stroke-width="1" stroke-opacity="0"></use></g></g><g><use xlink:href="#dNFNyl0y" opacity="1" fill="#ffffff" fill-opacity="1"></use><g><use xlink:href="#dNFNyl0y" opacity="1" fill-opacity="0" stroke="#000000" stroke-width="1" stroke-opacity="0"></use></g></g></g></g></svg>