<?xml version="1.0" encoding="UTF-8" standalone="no"?>
<!DOCTYPE svg PUBLIC "-//W3C//DTD SVG 1.1//EN" "http://www.w3.org/Graphics/SVG/1.1/DTD/svg11.dtd">
<svg version="1.1" xmlns="http://www.w3.org/2000/svg" xmlns:xlink="http://www.w3.org/1999/xlink" preserveAspectRatio="xMidYMid meet" viewBox="0 0 640 640" width="10" height="10"><defs><path d="M203.17 344.8C183.78 325.4 28.64 170.27 9.25 150.87C-3.08 138.54 -3.08 118.54 9.25 106.21C21.58 93.88 41.58 93.88 53.92 106.21C65.36 117.65 122.55 174.84 225.5 277.8C328.45 174.85 385.64 117.65 397.08 106.21C409.42 93.88 429.41 93.88 441.74 106.21C454.09 118.54 454.09 138.54 441.74 150.88C422.35 170.27 267.22 325.41 247.83 344.8C241.66 350.96 233.58 354.04 225.5 354.04C217.42 354.04 209.33 350.95 203.17 344.8Z" id="ha2aZAGoN"></path></defs><g><g><g><use xlink:href="#ha2aZAGoN" opacity="1" fill="#000000" fill-opacity="1"></use><g><use xlink:href="#ha2aZAGoN" opacity="1" fill-opacity="0" stroke="#000000" stroke-width="1" stroke-opacity="0"></use></g></g></g></g></svg>