<?xml version="1.0" encoding="UTF-8" standalone="no"?>
<!DOCTYPE svg PUBLIC "-//W3C//DTD SVG 1.1//EN" "http://www.w3.org/Graphics/SVG/1.1/DTD/svg11.dtd">
<svg version="1.1" xmlns="http://www.w3.org/2000/svg" xmlns:xlink="http://www.w3.org/1999/xlink" preserveAspectRatio="xMidYMid meet" viewBox="0 0 640 640" width="101" height="101"><defs><path d="M107.78 596.3C152.26 596.3 508.13 596.3 552.61 596.3C557.89 596.3 562.18 592.01 562.18 586.73C562.18 454.03 458.11 346.07 330.19 346.07C202.28 346.07 98.21 454.03 98.21 586.73C98.21 592.01 102.49 596.3 107.78 596.3ZM542.86 577.16C514.5 577.16 372.73 577.16 117.54 577.16C183.12 435.85 254.01 365.2 330.2 365.2C444.49 365.2 538.02 459.43 542.86 577.16Z" id="a5FsPluvQ"></path><path d="M107.78 596.3C152.26 596.3 508.13 596.3 552.61 596.3C557.89 596.3 562.18 592.01 562.18 586.73C562.18 454.03 458.11 346.07 330.19 346.07C202.28 346.07 98.21 454.03 98.21 586.73C98.21 592.01 102.49 596.3 107.78 596.3ZM542.86 577.16C514.5 577.16 372.73 577.16 117.54 577.16C183.12 435.85 254.01 365.2 330.2 365.2C444.49 365.2 538.02 459.43 542.86 577.16Z" id="ajNFqZ3EX"></path><path d="M326.18 42.83C252.4 42.83 192.39 104.95 192.39 181.31C192.39 257.66 252.41 319.78 326.18 319.78C399.96 319.78 459.98 257.66 459.98 181.31C459.98 104.95 399.96 42.83 326.18 42.83ZM326.18 300.65C262.96 300.65 211.52 247.11 211.52 181.31C211.52 115.5 262.96 61.96 326.18 61.96C389.41 61.96 440.85 115.5 440.85 181.31C440.85 247.11 389.41 300.65 326.18 300.65Z" id="a1m7Xj3eQh"></path><path d="M326.18 42.83C252.4 42.83 192.39 104.95 192.39 181.31C192.39 257.66 252.41 319.78 326.18 319.78C399.96 319.78 459.98 257.66 459.98 181.31C459.98 104.95 399.96 42.83 326.18 42.83ZM326.18 300.65C262.96 300.65 211.52 247.11 211.52 181.31C211.52 115.5 262.96 61.96 326.18 61.96C389.41 61.96 440.85 115.5 440.85 181.31C440.85 247.11 389.41 300.65 326.18 300.65Z" id="ebHaH0WuE"></path></defs><g><g><g><use xlink:href="#a5FsPluvQ" opacity="1" fill="#ffffff" fill-opacity="1"></use><g><use xlink:href="#a5FsPluvQ" opacity="1" fill-opacity="0" stroke="#000000" stroke-width="1" stroke-opacity="0"></use></g></g><g><use xlink:href="#ajNFqZ3EX" opacity="1" fill="#000000" fill-opacity="0"></use><g><use xlink:href="#ajNFqZ3EX" opacity="1" fill-opacity="0" stroke="#000000" stroke-width="1" stroke-opacity="0"></use></g></g><g><use xlink:href="#a1m7Xj3eQh" opacity="1" fill="#ffffff" fill-opacity="1"></use><g><use xlink:href="#a1m7Xj3eQh" opacity="1" fill-opacity="0" stroke="#000000" stroke-width="1" stroke-opacity="0"></use></g></g><g><use xlink:href="#ebHaH0WuE" opacity="1" fill="#000000" fill-opacity="0"></use><g><use xlink:href="#ebHaH0WuE" opacity="1" fill-opacity="0" stroke="#000000" stroke-width="1" stroke-opacity="0"></use></g></g></g></g></svg>